<svg xmlns="http://www.w3.org/2000/svg"
 viewBox="-15.75 -15.749999 16.5 16.5"
>
<polyline
 fill="none" stroke="green" stroke-width="0.25%"
 points="
  0.000000,  0.000000
 -1.000000, -0.000000
 -1.000000, -1.000000
  0.000000, -1.000000
  0.000000, -2.000000
  0.000000, -3.000000
 -1.000000, -3.000000
 -1.000000, -2.000000
 -2.000000, -2.000000
 -2.000000, -3.000000
 -3.000000, -3.000000
 -3.000000, -2.000000
 -3.000000, -1.000000
 -2.000000, -1.000000
 -2.000000,  0.000000
 -3.000000, -0.000000
 -4.000000, -0.000000
 -4.000000, -1.000000
 -5.000000, -1.000000
 -5.000000, -0.000000
 -6.000000, -0.000000
 -7.000000, -0.000000
 -7.000000, -1.000000
 -6.000000, -1.000000
 -6.000000, -2.000000
 -7.000000, -2.000000
 -7.000000, -3.000000
 -6.000000, -3.000000
 -5.000000, -3.000000
 -5.000000, -2.000000
 -4.000000, -2.000000
 -4.000000, -3.000000
 -4.000000, -4.000000
 -4.000000, -5.000000
 -5.000000, -5.000000
 -5.000000, -4.000000
 -6.000000, -4.000000
 -7.000000, -4.000000
 -7.000000, -5.000000
 -6.000000, -5.000000
 -6.000000, -6.000000
 -7.000000, -6.000000
 -7.000000, -7.000000
 -6.000000, -7.000000
 -5.000000, -7.000000
 -5.000000, -6.000000
 -4.000000, -6.000000
 -4.000000, -7.000000
 -3.000000, -7.000000
 -2.000000, -7.000000
 -2.000000, -6.000000
 -3.000000, -6.000000
 -3.000000, -5.000000
 -3.000000, -4.000000
 -2.000000, -3.999999
 -2.000000, -4.999999
 -1.000000, -4.999999
 -0.999999, -3.999999
  0.000001, -3.999999
  0.000001, -4.999999
  0.000001, -5.999999
 -0.999999, -5.999999
 -0.999999, -6.999999
  0.000001, -6.999999
  0.000001, -7.999999
  0.000001, -8.999999
 -0.999999, -8.999999
 -0.999999, -7.999999
 -2.000000, -7.999999
 -3.000000, -7.999999
 -3.000000, -8.999999
 -2.000000, -8.999999
 -2.000000, -9.999999
 -3.000000, -9.999999
 -3.000000,-10.999999
 -2.000000,-10.999999
 -1.000000,-10.999999
 -0.999999, -9.999999
  0.000001, -9.999999
  0.000001,-10.999999
  0.000001,-11.999999
 -0.999999,-11.999999
 -0.999999,-12.999999
  0.000001,-12.999999
  0.000001,-13.999999
  0.000001,-14.999999
 -0.999999,-14.999999
 -0.999999,-13.999999
 -2.000000,-13.999999
 -2.000000,-14.999999
 -3.000000,-14.999999
 -3.000000,-13.999999
 -3.000000,-12.999999
 -2.000000,-12.999999
 -2.000000,-11.999999
 -3.000000,-11.999999
 -4.000000,-11.999999
 -5.000000,-11.999999
 -5.000000,-12.999999
 -4.000000,-12.999999
 -4.000000,-13.999999
 -4.000000,-14.999999
 -5.000000,-14.999999
 -5.000000,-13.999999
 -6.000000,-13.999999
 -6.000000,-14.999999
 -7.000000,-14.999999
 -7.000000,-13.999999
 -7.000000,-12.999999
 -6.000000,-12.999999
 -6.000000,-11.999999
 -7.000000,-11.999999
 -7.000000,-10.999999
 -7.000000, -9.999999
 -6.000000, -9.999999
 -6.000000,-10.999999
 -5.000000,-10.999999
 -4.000000,-10.999999
 -4.000000, -9.999999
 -5.000000, -9.999999
 -5.000000, -8.999999
 -4.000000, -8.999999
 -4.000000, -7.999999
 -5.000000, -7.999999
 -6.000000, -7.999999
 -6.000000, -8.999999
 -7.000000, -8.999999
 -7.000000, -7.999999
 -8.000000, -7.999999
 -8.000000, -8.999999
 -9.000000, -8.999999
 -9.000000, -7.999999
-10.000000, -7.999999
-11.000000, -7.999999
-11.000000, -8.999999
-10.000000, -8.999999
-10.000000, -9.999999
-11.000000, -9.999999
-11.000000,-10.999999
-10.000000,-10.999999
 -9.000000,-10.999999
 -9.000000, -9.999999
 -8.000000, -9.999999
 -8.000000,-10.999999
 -8.000000,-11.999999
 -9.000000,-11.999999
 -9.000000,-12.999999
 -8.000000,-12.999999
 -8.000000,-13.999999
 -8.000000,-14.999999
 -9.000000,-14.999999
 -9.000000,-13.999999
-10.000000,-13.999999
-10.000000,-14.999999
-11.000000,-14.999999
-11.000000,-13.999999
-11.000000,-12.999999
-10.000000,-12.999999
-10.000000,-11.999999
-11.000000,-11.999999
-12.000000,-11.999999
-13.000000,-11.999999
-13.000000,-12.999999
-12.000000,-12.999999
-12.000000,-13.999999
-12.000000,-14.999999
-13.000000,-14.999999
-13.000000,-13.999999
-14.000000,-13.999999
-14.000000,-14.999999
-15.000000,-14.999999
-15.000000,-13.999999
-15.000000,-12.999999
-14.000000,-12.999999
-14.000000,-11.999999
-15.000000,-11.999999
-15.000000,-10.999999
-15.000000, -9.999999
-14.000000, -9.999999
-14.000000,-10.999999
-13.000000,-10.999999
-12.000000,-10.999999
-12.000000, -9.999999
-13.000000, -9.999999
-13.000000, -8.999999
-12.000000, -8.999999
-12.000000, -7.999999
-13.000000, -7.999999
-14.000000, -7.999999
-14.000000, -8.999999
-15.000000, -8.999999
-15.000000, -7.999999
-15.000000, -6.999999
-14.000000, -6.999999
-14.000000, -5.999999
-15.000000, -5.999999
-15.000000, -4.999999
-15.000000, -3.999999
-14.000000, -3.999999
-14.000000, -4.999999
-13.000000, -4.999999
-13.000000, -3.999999
-12.000000, -3.999999
-12.000000, -4.999999
-12.000000, -5.999999
-13.000000, -5.999999
-13.000000, -6.999999
-12.000000, -6.999999
-11.000000, -6.999999
-11.000000, -5.999999
-10.000000, -5.999999
-10.000000, -6.999999
 -9.000000, -6.999999
 -8.000000, -6.999999
 -8.000000, -5.999999
 -9.000000, -5.999999
 -9.000000, -4.999999
 -8.000000, -4.999999
 -8.000000, -3.999999
 -9.000000, -3.999999
-10.000000, -3.999999
-10.000000, -4.999999
-11.000000, -4.999999
-11.000000, -3.999999
-11.000000, -2.999999
-11.000000, -1.999999
-10.000000, -1.999999
-10.000000, -2.999999
 -9.000000, -2.999999
 -8.000000, -2.999999
 -8.000000, -1.999999
 -9.000000, -1.999999
 -9.000000, -0.999999
 -8.000000, -0.999999
 -8.000000,  0.000001
 -9.000000,  0.000001
-10.000000,  0.000001
-10.000000, -0.999999
-11.000000, -0.999999
-11.000000,  0.000001
-12.000000,  0.000001
-13.000000,  0.000000
-13.000000, -1.000000
-12.000000, -0.999999
-12.000000, -1.999999
-12.000000, -3.000000
-13.000000, -3.000000
-13.000000, -2.000000
-14.000000, -2.000000
-14.000000, -3.000000
-15.000000, -3.000000
-15.000000, -2.000000
-15.000000, -1.000000
-14.000000, -1.000000
-14.000000,  0.000000
-15.000000,  0.000000
 "
/>
</svg>
