<svg xmlns="http://www.w3.org/2000/svg"
 viewBox="-10.522227 -220.96677 264.04446 231.489"
>
<polyline
 fill="none" stroke="green" stroke-width="0.25%"
 points="
  0.000000,  0.000000
  1.000000,  0.000000
  1.500000, -0.866025
  2.000000,  0.000000
  3.000000,  0.000000
  3.500000, -0.866025
  3.000000, -1.732051
  4.000000, -1.732051
  4.500000, -2.598076
  5.000000, -1.732051
  6.000000, -1.732051
  5.500000, -0.866026
  6.000000, -0.000000
  7.000000, -0.000000
  7.500000, -0.866026
  8.000000, -0.000000
  9.000000, -0.000000
  9.500000, -0.866026
  9.000000, -1.732051
 10.000000, -1.732051
 10.500000, -2.598076
 10.000000, -3.464102
  9.000000, -3.464102
  9.500000, -4.330127
  9.000000, -5.196153
 10.000000, -5.196153
 10.500000, -6.062178
 11.000000, -5.196153
 12.000000, -5.196153
 12.500000, -6.062178
 12.000000, -6.928204
 13.000000, -6.928204
 13.500000, -7.794229
 14.000000, -6.928204
 15.000000, -6.928204
 14.500000, -6.062178
 15.000000, -5.196153
 16.000000, -5.196153
 16.500000, -6.062178
 17.000000, -5.196153
 18.000000, -5.196153
 17.500000, -4.330127
 18.000000, -3.464102
 17.000000, -3.464102
 16.500000, -2.598076
 17.000000, -1.732051
 18.000000, -1.732051
 17.500000, -0.866026
 18.000000, -0.000000
 19.000000, -0.000000
 19.500000, -0.866026
 20.000000, -0.000000
 21.000000, -0.000000
 21.500000, -0.866026
 21.000000, -1.732051
 22.000000, -1.732051
 22.500000, -2.598076
 23.000000, -1.732051
 24.000000, -1.732051
 23.500000, -0.866026
 24.000000, -0.000000
 25.000000, -0.000000
 25.500000, -0.866026
 26.000000, -0.000000
 27.000000, -0.000000
 27.500000, -0.866026
 27.000000, -1.732051
 28.000000, -1.732051
 28.500000, -2.598076
 28.000000, -3.464102
 27.000000, -3.464102
 27.500000, -4.330127
 27.000000, -5.196153
 28.000000, -5.196153
 28.500000, -6.062178
 29.000000, -5.196153
 30.000000, -5.196153
 30.500000, -6.062178
 30.000000, -6.928204
 31.000000, -6.928204
 31.500000, -7.794229
 31.000000, -8.660254
 30.000000, -8.660254
 30.500000, -9.526279
 30.000000,-10.392304
 29.000000,-10.392304
 28.500000, -9.526279
 28.000000,-10.392304
 27.000000,-10.392304
 27.500000,-11.258329
 27.000000,-12.124354
 28.000000,-12.124354
 28.500000,-12.990379
 28.000000,-13.856404
 27.000000,-13.856404
 27.500000,-14.722429
 27.000000,-15.588454
 28.000000,-15.588454
 28.500000,-16.454480
 29.000000,-15.588453
 30.000000,-15.588453
 30.500000,-16.454480
 30.000000,-17.320505
 31.000000,-17.320505
 31.500000,-18.186531
 32.000000,-17.320505
 33.000000,-17.320505
 32.500000,-16.454480
 33.000000,-15.588453
 34.000000,-15.588453
 34.500000,-16.454480
 35.000000,-15.588453
 36.000000,-15.588453
 36.500000,-16.454480
 36.000000,-17.320505
 37.000000,-17.320505
 37.500000,-18.186531
 37.000000,-19.052557
 36.000000,-19.052557
 36.500000,-19.918583
 36.000000,-20.784609
 37.000000,-20.784609
 37.500000,-21.650635
 38.000000,-20.784609
 39.000000,-20.784609
 39.500000,-21.650635
 39.000000,-22.516660
 40.000000,-22.516660
 40.500000,-23.382687
 41.000000,-22.516660
 42.000000,-22.516660
 41.500000,-21.650635
 42.000000,-20.784609
 43.000000,-20.784609
 43.500000,-21.650635
 44.000000,-20.784609
 45.000000,-20.784609
 44.500000,-19.918583
 45.000000,-19.052557
 44.000000,-19.052557
 43.500000,-18.186531
 44.000000,-17.320505
 45.000000,-17.320505
 44.500000,-16.454480
 45.000000,-15.588453
 46.000000,-15.588453
 46.500000,-16.454480
 47.000000,-15.588453
 48.000000,-15.588453
 48.500000,-16.454480
 48.000000,-17.320505
 49.000000,-17.320505
 49.500000,-18.186531
 50.000000,-17.320505
 51.000000,-17.320505
 50.500000,-16.454480
 51.000000,-15.588453
 52.000000,-15.588453
 52.500000,-16.454480
 53.000000,-15.588453
 54.000000,-15.588453
 53.500000,-14.722428
 54.000000,-13.856403
 53.000000,-13.856403
 52.500000,-12.990378
 53.000000,-12.124353
 54.000000,-12.124353
 53.500000,-11.258328
 54.000000,-10.392303
 53.000000,-10.392303
 52.500000, -9.526278
 52.000000,-10.392303
 51.000000,-10.392303
 50.500000, -9.526278
 51.000000, -8.660254
 50.000000, -8.660254
 49.500000, -7.794228
 50.000000, -6.928203
 51.000000, -6.928203
 50.500000, -6.062177
 51.000000, -5.196152
 52.000000, -5.196152
 52.500000, -6.062177
 53.000000, -5.196152
 54.000000, -5.196152
 53.500000, -4.330126
 54.000000, -3.464101
 53.000000, -3.464101
 52.500000, -2.598075
 53.000000, -1.732050
 54.000000, -1.732050
 53.500000, -0.866025
 54.000000,  0.000001
 55.000000,  0.000001
 55.500000, -0.866025
 56.000000,  0.000001
 57.000000,  0.000001
 57.500000, -0.866025
 57.000000, -1.732050
 58.000000, -1.732050
 58.500000, -2.598075
 59.000000, -1.732050
 60.000000, -1.732050
 59.500000, -0.866025
 60.000000,  0.000001
 61.000000,  0.000001
 61.500000, -0.866025
 62.000000,  0.000001
 63.000000,  0.000001
 63.500000, -0.866025
 63.000000, -1.732050
 64.000000, -1.732050
 64.500000, -2.598075
 64.000000, -3.464101
 63.000000, -3.464101
 63.500000, -4.330126
 63.000000, -5.196152
 64.000000, -5.196152
 64.500000, -6.062177
 65.000000, -5.196152
 66.000000, -5.196152
 66.500000, -6.062177
 66.000000, -6.928203
 67.000000, -6.928203
 67.500000, -7.794228
 68.000000, -6.928203
 69.000000, -6.928203
 68.500000, -6.062177
 69.000000, -5.196152
 70.000000, -5.196152
 70.500000, -6.062177
 71.000000, -5.196152
 72.000000, -5.196152
 71.500000, -4.330126
 72.000000, -3.464101
 71.000000, -3.464101
 70.500000, -2.598075
 71.000000, -1.732050
 72.000000, -1.732050
 71.500000, -0.866025
 72.000000,  0.000001
 73.000000,  0.000001
 73.500000, -0.866025
 74.000000,  0.000001
 75.000000,  0.000001
 75.500000, -0.866025
 75.000000, -1.732050
 76.000000, -1.732050
 76.500000, -2.598075
 77.000000, -1.732050
 78.000000, -1.732050
 77.500000, -0.866025
 78.000000,  0.000001
 79.000000,  0.000001
 79.500000, -0.866025
 80.000000,  0.000001
 81.000000,  0.000001
 81.500000, -0.866025
 81.000000, -1.732050
 82.000000, -1.732050
 82.500000, -2.598075
 82.000000, -3.464101
 81.000000, -3.464101
 81.500000, -4.330126
 81.000000, -5.196152
 82.000000, -5.196152
 82.500000, -6.062177
 83.000000, -5.196152
 84.000000, -5.196152
 84.500000, -6.062177
 84.000000, -6.928203
 85.000000, -6.928203
 85.500000, -7.794228
 85.000000, -8.660254
 84.000000, -8.660254
 84.500000, -9.526279
 84.000000,-10.392304
 83.000000,-10.392304
 82.500000, -9.526279
 82.000000,-10.392304
 81.000000,-10.392304
 81.500000,-11.258329
 81.000000,-12.124354
 82.000000,-12.124354
 82.500000,-12.990379
 82.000000,-13.856404
 81.000000,-13.856404
 81.500000,-14.722429
 81.000000,-15.588454
 82.000000,-15.588454
 82.500000,-16.454480
 83.000000,-15.588453
 84.000000,-15.588453
 84.500000,-16.454480
 84.000000,-17.320505
 85.000000,-17.320505
 85.500000,-18.186531
 86.000000,-17.320505
 87.000000,-17.320505
 86.500000,-16.454480
 87.000000,-15.588453
 88.000000,-15.588453
 88.500000,-16.454480
 89.000000,-15.588453
 90.000000,-15.588453
 90.500000,-16.454480
 90.000000,-17.320505
 91.000000,-17.320505
 91.500000,-18.186531
 91.000000,-19.052557
 90.000000,-19.052557
 90.500000,-19.918583
 90.000000,-20.784609
 91.000000,-20.784609
 91.500000,-21.650635
 92.000000,-20.784609
 93.000000,-20.784609
 93.500000,-21.650635
 93.000000,-22.516660
 94.000000,-22.516660
 94.500000,-23.382687
 94.000000,-24.248713
 93.000000,-24.248713
 93.500000,-25.114738
 93.000000,-25.980764
 92.000000,-25.980764
 91.500000,-25.114738
 91.000000,-25.980764
 90.000000,-25.980764
 90.500000,-26.846790
 90.000000,-27.712816
 91.000000,-27.712816
 91.500000,-28.578842
 91.000000,-29.444868
 90.000000,-29.444868
 90.500000,-30.310894
 90.000000,-31.176920
 89.000000,-31.176920
 88.500000,-30.310894
 88.000000,-31.176920
 87.000000,-31.176920
 86.500000,-30.310894
 87.000000,-29.444868
 86.000000,-29.444868
 85.500000,-28.578842
 85.000000,-29.444868
 84.000000,-29.444868
 84.500000,-30.310894
 84.000000,-31.176920
 83.000000,-31.176920
 82.500000,-30.310894
 82.000000,-31.176920
 81.000000,-31.176920
 81.500000,-32.042946
 81.000000,-32.908970
 82.000000,-32.908970
 82.500000,-33.774994
 82.000000,-34.641018
 81.000000,-34.641018
 81.500000,-35.507042
 81.000000,-36.373066
 82.000000,-36.373066
 82.500000,-37.239090
 83.000000,-36.373066
 84.000000,-36.373066
 84.500000,-37.239090
 84.000000,-38.105114
 85.000000,-38.105114
 85.500000,-38.971138
 85.000000,-39.837162
 84.000000,-39.837162
 84.500000,-40.703186
 84.000000,-41.569210
 83.000000,-41.569210
 82.500000,-40.703186
 82.000000,-41.569210
 81.000000,-41.569210
 81.500000,-42.435234
 81.000000,-43.301258
 82.000000,-43.301258
 82.500000,-44.167282
 82.000000,-45.033306
 81.000000,-45.033306
 81.500000,-45.899330
 81.000000,-46.765354
 82.000000,-46.765354
 82.500000,-47.631380
 83.000000,-46.765354
 84.000000,-46.765354
 84.500000,-47.631380
 84.000000,-48.497402
 85.000000,-48.497402
 85.500000,-49.363426
 86.000000,-48.497402
 87.000000,-48.497402
 86.500000,-47.631380
 87.000000,-46.765354
 88.000000,-46.765354
 88.500000,-47.631380
 89.000000,-46.765354
 90.000000,-46.765354
 90.500000,-47.631380
 90.000000,-48.497402
 91.000000,-48.497402
 91.500000,-49.363426
 91.000000,-50.229450
 90.000000,-50.229450
 90.500000,-51.095474
 90.000000,-51.961500
 91.000000,-51.961500
 91.500000,-52.827522
 92.000000,-51.961500
 93.000000,-51.961500
 93.500000,-52.827522
 93.000000,-53.693546
 94.000000,-53.693546
 94.500000,-54.559570
 95.000000,-53.693546
 96.000000,-53.693546
 95.500000,-52.827522
 96.000000,-51.961500
 97.000000,-51.961500
 97.500000,-52.827522
 98.000000,-51.961500
 99.000000,-51.961500
 98.500000,-51.095474
 99.000000,-50.229450
 98.000000,-50.229450
 97.500000,-49.363426
 98.000000,-48.497402
 99.000000,-48.497402
 98.500000,-47.631380
 99.000000,-46.765354
100.000000,-46.765354
100.500000,-47.631380
101.000000,-46.765354
102.000000,-46.765354
102.500000,-47.631380
102.000000,-48.497402
103.000000,-48.497402
103.500000,-49.363426
104.000000,-48.497402
105.000000,-48.497402
104.500000,-47.631380
105.000000,-46.765354
106.000000,-46.765354
106.500000,-47.631380
107.000000,-46.765354
108.000000,-46.765354
108.500000,-47.631380
108.000000,-48.497402
109.000000,-48.497402
109.500000,-49.363426
109.000000,-50.229450
108.000000,-50.229450
108.500000,-51.095474
108.000000,-51.961500
109.000000,-51.961500
109.500000,-52.827522
110.000000,-51.961500
111.000000,-51.961500
111.500000,-52.827522
111.000000,-53.693546
112.000000,-53.693546
112.500000,-54.559570
112.000000,-55.425594
111.000000,-55.425594
111.500000,-56.291620
111.000000,-57.157642
110.000000,-57.157642
109.500000,-56.291620
109.000000,-57.157642
108.000000,-57.157642
108.500000,-58.023666
108.000000,-58.889690
109.000000,-58.889690
109.500000,-59.755714
109.000000,-60.621740
108.000000,-60.621740
108.500000,-61.487762
108.000000,-62.353786
109.000000,-62.353786
109.500000,-63.219810
110.000000,-62.353786
111.000000,-62.353786
111.500000,-63.219810
111.000000,-64.085840
112.000000,-64.085840
112.500000,-64.951866
113.000000,-64.085840
114.000000,-64.085840
113.500000,-63.219814
114.000000,-62.353790
115.000000,-62.353790
115.500000,-63.219814
116.000000,-62.353790
117.000000,-62.353790
117.500000,-63.219814
117.000000,-64.085840
118.000000,-64.085840
118.500000,-64.951866
118.000000,-65.817894
117.000000,-65.817894
117.500000,-66.683920
117.000000,-67.549950
118.000000,-67.549950
118.500000,-68.415980
119.000000,-67.549950
120.000000,-67.549950
120.500000,-68.415980
120.000000,-69.282005
121.000000,-69.282005
121.500000,-70.148030
122.000000,-69.282005
123.000000,-69.282005
122.500000,-68.415980
123.000000,-67.549950
124.000000,-67.549950
124.500000,-68.415980
125.000000,-67.549950
126.000000,-67.549950
125.500000,-66.683920
126.000000,-65.817894
125.000000,-65.817894
124.500000,-64.951866
125.000000,-64.085840
126.000000,-64.085840
125.500000,-63.219814
126.000000,-62.353790
127.000000,-62.353790
127.500000,-63.219814
128.000000,-62.353790
129.000000,-62.353790
129.500000,-63.219814
129.000000,-64.085840
130.000000,-64.085840
130.500000,-64.951866
131.000000,-64.085840
132.000000,-64.085840
131.500000,-63.219814
132.000000,-62.353790
133.000000,-62.353790
133.500000,-63.219814
134.000000,-62.353790
135.000000,-62.353790
134.500000,-61.487766
135.000000,-60.621742
134.000000,-60.621742
133.500000,-59.755720
134.000000,-58.889694
135.000000,-58.889694
134.500000,-58.023670
135.000000,-57.157646
134.000000,-57.157646
133.500000,-56.291622
133.000000,-57.157646
132.000000,-57.157646
131.500000,-56.291622
132.000000,-55.425600
131.000000,-55.425600
130.500000,-54.559574
131.000000,-53.693550
132.000000,-53.693550
131.500000,-52.827526
132.000000,-51.961502
133.000000,-51.961502
133.500000,-52.827526
134.000000,-51.961502
135.000000,-51.961502
134.500000,-51.095478
135.000000,-50.229454
134.000000,-50.229454
133.500000,-49.363430
134.000000,-48.497406
135.000000,-48.497406
134.500000,-47.631382
135.000000,-46.765358
136.000000,-46.765358
136.500000,-47.631382
137.000000,-46.765358
138.000000,-46.765358
138.500000,-47.631382
138.000000,-48.497406
139.000000,-48.497406
139.500000,-49.363430
140.000000,-48.497406
141.000000,-48.497406
140.500000,-47.631382
141.000000,-46.765358
142.000000,-46.765358
142.500000,-47.631382
143.000000,-46.765358
144.000000,-46.765358
144.500000,-47.631382
144.000000,-48.497406
145.000000,-48.497406
145.500000,-49.363430
145.000000,-50.229454
144.000000,-50.229454
144.500000,-51.095478
144.000000,-51.961502
145.000000,-51.961502
145.500000,-52.827526
146.000000,-51.961502
147.000000,-51.961502
147.500000,-52.827526
147.000000,-53.693550
148.000000,-53.693550
148.500000,-54.559574
149.000000,-53.693550
150.000000,-53.693550
149.500000,-52.827526
150.000000,-51.961502
151.000000,-51.961502
151.500000,-52.827526
152.000000,-51.961502
153.000000,-51.961502
152.500000,-51.095478
153.000000,-50.229454
152.000000,-50.229454
151.500000,-49.363430
152.000000,-48.497406
153.000000,-48.497406
152.500000,-47.631382
153.000000,-46.765358
154.000000,-46.765358
154.500000,-47.631382
155.000000,-46.765358
156.000000,-46.765358
156.500000,-47.631382
156.000000,-48.497406
157.000000,-48.497406
157.500000,-49.363430
158.000000,-48.497406
159.000000,-48.497406
158.500000,-47.631382
159.000000,-46.765358
160.000000,-46.765358
160.500000,-47.631382
161.000000,-46.765358
162.000000,-46.765358
161.500000,-45.899334
162.000000,-45.033310
161.000000,-45.033310
160.500000,-44.167286
161.000000,-43.301260
162.000000,-43.301260
161.500000,-42.435238
162.000000,-41.569214
161.000000,-41.569214
160.500000,-40.703190
160.000000,-41.569214
159.000000,-41.569214
158.500000,-40.703190
159.000000,-39.837166
158.000000,-39.837166
157.500000,-38.971140
158.000000,-38.105118
159.000000,-38.105118
158.500000,-37.239094
159.000000,-36.373070
160.000000,-36.373070
160.500000,-37.239094
161.000000,-36.373070
162.000000,-36.373070
161.500000,-35.507046
162.000000,-34.641020
161.000000,-34.641020
160.500000,-33.774998
161.000000,-32.908974
162.000000,-32.908974
161.500000,-32.042950
162.000000,-31.176924
161.000000,-31.176924
160.500000,-30.310898
160.000000,-31.176924
159.000000,-31.176924
158.500000,-30.310898
159.000000,-29.444872
158.000000,-29.444872
157.500000,-28.578846
157.000000,-29.444872
156.000000,-29.444872
156.500000,-30.310898
156.000000,-31.176924
155.000000,-31.176924
154.500000,-30.310898
154.000000,-31.176924
153.000000,-31.176924
152.500000,-30.310898
153.000000,-29.444872
152.000000,-29.444872
151.500000,-28.578846
152.000000,-27.712820
153.000000,-27.712820
152.500000,-26.846794
153.000000,-25.980768
152.000000,-25.980768
151.500000,-25.114742
151.000000,-25.980768
150.000000,-25.980768
149.500000,-25.114742
150.000000,-24.248716
149.000000,-24.248716
148.500000,-23.382690
149.000000,-22.516665
150.000000,-22.516665
149.500000,-21.650639
150.000000,-20.784613
151.000000,-20.784613
151.500000,-21.650639
152.000000,-20.784613
153.000000,-20.784613
152.500000,-19.918587
153.000000,-19.052560
152.000000,-19.052560
151.500000,-18.186535
152.000000,-17.320509
153.000000,-17.320509
152.500000,-16.454483
153.000000,-15.588457
154.000000,-15.588457
154.500000,-16.454483
155.000000,-15.588457
156.000000,-15.588457
156.500000,-16.454483
156.000000,-17.320509
157.000000,-17.320509
157.500000,-18.186535
158.000000,-17.320509
159.000000,-17.320509
158.500000,-16.454483
159.000000,-15.588457
160.000000,-15.588457
160.500000,-16.454483
161.000000,-15.588457
162.000000,-15.588457
161.500000,-14.722432
162.000000,-13.856407
161.000000,-13.856407
160.500000,-12.990382
161.000000,-12.124357
162.000000,-12.124357
161.500000,-11.258332
162.000000,-10.392307
161.000000,-10.392307
160.500000, -9.526282
160.000000,-10.392307
159.000000,-10.392307
158.500000, -9.526282
159.000000, -8.660257
158.000000, -8.660257
157.500000, -7.794232
158.000000, -6.928206
159.000000, -6.928206
158.500000, -6.062181
159.000000, -5.196156
160.000000, -5.196156
160.500000, -6.062181
161.000000, -5.196156
162.000000, -5.196156
161.500000, -4.330130
162.000000, -3.464105
161.000000, -3.464105
160.500000, -2.598079
161.000000, -1.732054
162.000000, -1.732054
161.500000, -0.866028
162.000000, -0.000003
163.000000, -0.000003
163.500000, -0.866028
164.000000, -0.000003
165.000000, -0.000003
165.500000, -0.866028
165.000000, -1.732054
166.000000, -1.732054
166.500000, -2.598079
167.000000, -1.732054
168.000000, -1.732054
167.500000, -0.866028
168.000000, -0.000003
169.000000, -0.000003
169.500000, -0.866028
170.000000, -0.000003
171.000000, -0.000003
171.500000, -0.866028
171.000000, -1.732054
172.000000, -1.732054
172.500000, -2.598079
172.000000, -3.464105
171.000000, -3.464105
171.500000, -4.330130
171.000000, -5.196156
172.000000, -5.196156
172.500000, -6.062181
173.000000, -5.196156
174.000000, -5.196156
174.500000, -6.062181
174.000000, -6.928206
175.000000, -6.928206
175.500000, -7.794232
176.000000, -6.928206
177.000000, -6.928206
176.500000, -6.062181
177.000000, -5.196156
178.000000, -5.196156
178.500000, -6.062181
179.000000, -5.196156
180.000000, -5.196156
179.500000, -4.330130
180.000000, -3.464105
179.000000, -3.464105
178.500000, -2.598079
179.000000, -1.732054
180.000000, -1.732054
179.500000, -0.866028
180.000000, -0.000003
181.000000, -0.000003
181.500000, -0.866028
182.000000, -0.000003
183.000000, -0.000003
183.500000, -0.866028
183.000000, -1.732054
184.000000, -1.732054
184.500000, -2.598079
185.000000, -1.732054
186.000000, -1.732054
185.500000, -0.866028
186.000000, -0.000003
187.000000, -0.000003
187.500000, -0.866028
188.000000, -0.000003
189.000000, -0.000003
189.500000, -0.866028
189.000000, -1.732054
190.000000, -1.732054
190.500000, -2.598079
190.000000, -3.464105
189.000000, -3.464105
189.500000, -4.330130
189.000000, -5.196156
190.000000, -5.196156
190.500000, -6.062181
191.000000, -5.196156
192.000000, -5.196156
192.500000, -6.062181
192.000000, -6.928206
193.000000, -6.928206
193.500000, -7.794232
193.000000, -8.660257
192.000000, -8.660257
192.500000, -9.526283
192.000000,-10.392308
191.000000,-10.392308
190.500000, -9.526283
190.000000,-10.392308
189.000000,-10.392308
189.500000,-11.258333
189.000000,-12.124358
190.000000,-12.124358
190.500000,-12.990383
190.000000,-13.856408
189.000000,-13.856408
189.500000,-14.722433
189.000000,-15.588458
190.000000,-15.588458
190.500000,-16.454483
191.000000,-15.588457
192.000000,-15.588457
192.500000,-16.454483
192.000000,-17.320509
193.000000,-17.320509
193.500000,-18.186535
194.000000,-17.320509
195.000000,-17.320509
194.500000,-16.454483
195.000000,-15.588457
196.000000,-15.588457
196.500000,-16.454483
197.000000,-15.588457
198.000000,-15.588457
198.500000,-16.454483
198.000000,-17.320509
199.000000,-17.320509
199.500000,-18.186535
199.000000,-19.052560
198.000000,-19.052560
198.500000,-19.918587
198.000000,-20.784613
199.000000,-20.784613
199.500000,-21.650639
200.000000,-20.784613
201.000000,-20.784613
201.500000,-21.650639
201.000000,-22.516665
202.000000,-22.516665
202.500000,-23.382690
203.000000,-22.516665
204.000000,-22.516665
203.500000,-21.650639
204.000000,-20.784613
205.000000,-20.784613
205.500000,-21.650639
206.000000,-20.784613
207.000000,-20.784613
206.500000,-19.918587
207.000000,-19.052560
206.000000,-19.052560
205.500000,-18.186535
206.000000,-17.320509
207.000000,-17.320509
206.500000,-16.454483
207.000000,-15.588457
208.000000,-15.588457
208.500000,-16.454483
209.000000,-15.588457
210.000000,-15.588457
210.500000,-16.454483
210.000000,-17.320509
211.000000,-17.320509
211.500000,-18.186535
212.000000,-17.320509
213.000000,-17.320509
212.500000,-16.454483
213.000000,-15.588457
214.000000,-15.588457
214.500000,-16.454483
215.000000,-15.588457
216.000000,-15.588457
215.500000,-14.722432
216.000000,-13.856407
215.000000,-13.856407
214.500000,-12.990382
215.000000,-12.124357
216.000000,-12.124357
215.500000,-11.258332
216.000000,-10.392307
215.000000,-10.392307
214.500000, -9.526282
214.000000,-10.392307
213.000000,-10.392307
212.500000, -9.526282
213.000000, -8.660257
212.000000, -8.660257
211.500000, -7.794232
212.000000, -6.928206
213.000000, -6.928206
212.500000, -6.062181
213.000000, -5.196156
214.000000, -5.196156
214.500000, -6.062181
215.000000, -5.196156
216.000000, -5.196156
215.500000, -4.330130
216.000000, -3.464105
215.000000, -3.464105
214.500000, -2.598079
215.000000, -1.732054
216.000000, -1.732054
215.500000, -0.866028
216.000000, -0.000003
217.000000, -0.000003
217.500000, -0.866028
218.000000, -0.000003
219.000000, -0.000003
219.500000, -0.866028
219.000000, -1.732054
220.000000, -1.732054
220.500000, -2.598079
221.000000, -1.732054
222.000000, -1.732054
221.500000, -0.866028
222.000000, -0.000003
223.000000, -0.000003
223.500000, -0.866028
224.000000, -0.000003
225.000000, -0.000003
225.500000, -0.866028
225.000000, -1.732054
226.000000, -1.732054
226.500000, -2.598079
226.000000, -3.464105
225.000000, -3.464105
225.500000, -4.330130
225.000000, -5.196156
226.000000, -5.196156
226.500000, -6.062181
227.000000, -5.196156
228.000000, -5.196156
228.500000, -6.062181
228.000000, -6.928206
229.000000, -6.928206
229.500000, -7.794232
230.000000, -6.928206
231.000000, -6.928206
230.500000, -6.062181
231.000000, -5.196156
232.000000, -5.196156
232.500000, -6.062181
233.000000, -5.196156
234.000000, -5.196156
233.500000, -4.330130
234.000000, -3.464105
233.000000, -3.464105
232.500000, -2.598079
233.000000, -1.732054
234.000000, -1.732054
233.500000, -0.866028
234.000000, -0.000003
235.000000, -0.000003
235.500000, -0.866028
236.000000, -0.000003
237.000000, -0.000003
237.500000, -0.866028
237.000000, -1.732054
238.000000, -1.732054
238.500000, -2.598079
239.000000, -1.732054
240.000000, -1.732054
239.500000, -0.866028
240.000000, -0.000003
241.000000, -0.000003
241.500000, -0.866028
242.000000, -0.000003
243.000000, -0.000003
242.500000, -0.866028
241.500000, -0.866028
242.000000, -1.732054
241.500000, -2.598079
240.500000, -2.598079
240.000000, -1.732054
239.500000, -2.598079
238.500000, -2.598079
239.000000, -3.464105
238.500000, -4.330130
239.500000, -4.330130
240.000000, -5.196156
239.500000, -6.062181
238.500000, -6.062181
239.000000, -6.928206
238.500000, -7.794232
237.500000, -7.794232
237.000000, -6.928206
236.500000, -7.794232
235.500000, -7.794232
235.000000, -6.928206
235.500000, -6.062181
234.500000, -6.062181
234.000000, -5.196156
233.500000, -6.062181
232.500000, -6.062181
233.000000, -6.928206
232.500000, -7.794232
231.500000, -7.794232
231.000000, -6.928206
230.500000, -7.794232
229.500000, -7.794232
230.000000, -8.660257
229.500000, -9.526282
230.500000, -9.526282
231.000000,-10.392307
230.500000,-11.258332
229.500000,-11.258332
230.000000,-12.124357
229.500000,-12.990382
230.500000,-12.990382
231.000000,-13.856407
231.500000,-12.990381
232.500000,-12.990381
233.000000,-13.856407
232.500000,-14.722432
233.500000,-14.722432
234.000000,-15.588457
233.500000,-16.454483
232.500000,-16.454483
233.000000,-17.320509
232.500000,-18.186535
231.500000,-18.186535
231.000000,-17.320509
230.500000,-18.186535
229.500000,-18.186535
230.000000,-19.052560
229.500000,-19.918587
230.500000,-19.918587
231.000000,-20.784613
230.500000,-21.650639
229.500000,-21.650639
230.000000,-22.516665
229.500000,-23.382690
228.500000,-23.382690
228.000000,-22.516665
227.500000,-23.382690
226.500000,-23.382690
226.000000,-22.516665
226.500000,-21.650639
225.500000,-21.650639
225.000000,-20.784613
224.500000,-21.650639
223.500000,-21.650639
224.000000,-22.516665
223.500000,-23.382690
222.500000,-23.382690
222.000000,-22.516665
221.500000,-23.382690
220.500000,-23.382690
220.000000,-22.516665
220.500000,-21.650639
219.500000,-21.650639
219.000000,-20.784613
219.500000,-19.918587
220.500000,-19.918587
220.000000,-19.052560
220.500000,-18.186535
219.500000,-18.186535
219.000000,-17.320509
218.500000,-18.186535
217.500000,-18.186535
217.000000,-17.320509
217.500000,-16.454483
216.500000,-16.454483
216.000000,-15.588457
215.500000,-16.454483
214.500000,-16.454483
215.000000,-17.320509
214.500000,-18.186535
213.500000,-18.186535
213.000000,-17.320509
212.500000,-18.186535
211.500000,-18.186535
212.000000,-19.052560
211.500000,-19.918587
212.500000,-19.918587
213.000000,-20.784613
212.500000,-21.650639
211.500000,-21.650639
212.000000,-22.516665
211.500000,-23.382690
210.500000,-23.382690
210.000000,-22.516665
209.500000,-23.382690
208.500000,-23.382690
208.000000,-22.516665
208.500000,-21.650639
207.500000,-21.650639
207.000000,-20.784613
206.500000,-21.650639
205.500000,-21.650639
206.000000,-22.516665
205.500000,-23.382690
204.500000,-23.382690
204.000000,-22.516665
203.500000,-23.382690
202.500000,-23.382690
203.000000,-24.248716
202.500000,-25.114742
203.500000,-25.114742
204.000000,-25.980768
203.500000,-26.846794
202.500000,-26.846794
203.000000,-27.712820
202.500000,-28.578846
203.500000,-28.578846
204.000000,-29.444872
204.500000,-28.578846
205.500000,-28.578846
206.000000,-29.444872
205.500000,-30.310898
206.500000,-30.310898
207.000000,-31.176924
206.500000,-32.042950
205.500000,-32.042950
206.000000,-32.908974
205.500000,-33.774998
204.500000,-33.774998
204.000000,-32.908974
203.500000,-33.774998
202.500000,-33.774998
203.000000,-34.641020
202.500000,-35.507046
203.500000,-35.507046
204.000000,-36.373070
203.500000,-37.239094
202.500000,-37.239094
203.000000,-38.105118
202.500000,-38.971140
203.500000,-38.971140
204.000000,-39.837166
204.500000,-38.971140
205.500000,-38.971140
206.000000,-39.837166
205.500000,-40.703190
206.500000,-40.703190
207.000000,-41.569214
207.500000,-40.703190
208.500000,-40.703190
208.000000,-39.837166
208.500000,-38.971140
209.500000,-38.971140
210.000000,-39.837166
210.500000,-38.971140
211.500000,-38.971140
212.000000,-39.837166
211.500000,-40.703190
212.500000,-40.703190
213.000000,-41.569214
212.500000,-42.435238
211.500000,-42.435238
212.000000,-43.301260
211.500000,-44.167286
212.500000,-44.167286
213.000000,-45.033310
213.500000,-44.167286
214.500000,-44.167286
215.000000,-45.033310
214.500000,-45.899334
215.500000,-45.899334
216.000000,-46.765358
215.500000,-47.631382
214.500000,-47.631382
215.000000,-48.497406
214.500000,-49.363430
213.500000,-49.363430
213.000000,-48.497406
212.500000,-49.363430
211.500000,-49.363430
212.000000,-50.229454
211.500000,-51.095478
212.500000,-51.095478
213.000000,-51.961502
212.500000,-52.827526
211.500000,-52.827526
212.000000,-53.693550
211.500000,-54.559574
210.500000,-54.559574
210.000000,-53.693550
209.500000,-54.559574
208.500000,-54.559574
208.000000,-53.693550
208.500000,-52.827526
207.500000,-52.827526
207.000000,-51.961502
206.500000,-52.827526
205.500000,-52.827526
206.000000,-53.693550
205.500000,-54.559574
204.500000,-54.559574
204.000000,-53.693550
203.500000,-54.559574
202.500000,-54.559574
203.000000,-55.425600
202.500000,-56.291622
203.500000,-56.291622
204.000000,-57.157646
203.500000,-58.023670
202.500000,-58.023670
203.000000,-58.889694
202.500000,-59.755720
203.500000,-59.755720
204.000000,-60.621742
204.500000,-59.755720
205.500000,-59.755720
206.000000,-60.621742
205.500000,-61.487766
206.500000,-61.487766
207.000000,-62.353790
206.500000,-63.219814
205.500000,-63.219814
206.000000,-64.085840
205.500000,-64.951866
204.500000,-64.951866
204.000000,-64.085840
203.500000,-64.951866
202.500000,-64.951866
203.000000,-65.817894
202.500000,-66.683920
203.500000,-66.683920
204.000000,-67.549950
203.500000,-68.415980
202.500000,-68.415980
203.000000,-69.282005
202.500000,-70.148030
201.500000,-70.148030
201.000000,-69.282005
200.500000,-70.148030
199.500000,-70.148030
199.000000,-69.282005
199.500000,-68.415980
198.500000,-68.415980
198.000000,-67.549950
197.500000,-68.415980
196.500000,-68.415980
197.000000,-69.282005
196.500000,-70.148030
195.500000,-70.148030
195.000000,-69.282005
194.500000,-70.148030
193.500000,-70.148030
193.000000,-69.282005
193.500000,-68.415980
192.500000,-68.415980
192.000000,-67.549950
192.500000,-66.683920
193.500000,-66.683920
193.000000,-65.817894
193.500000,-64.951866
192.500000,-64.951866
192.000000,-64.085840
191.500000,-64.951866
190.500000,-64.951866
190.000000,-64.085840
190.500000,-63.219814
189.500000,-63.219814
189.000000,-62.353790
188.500000,-63.219814
187.500000,-63.219814
188.000000,-64.085840
187.500000,-64.951866
186.500000,-64.951866
186.000000,-64.085840
185.500000,-64.951866
184.500000,-64.951866
185.000000,-65.817894
184.500000,-66.683920
185.500000,-66.683920
186.000000,-67.549950
185.500000,-68.415980
184.500000,-68.415980
185.000000,-69.282005
184.500000,-70.148030
183.500000,-70.148030
183.000000,-69.282005
182.500000,-70.148030
181.500000,-70.148030
181.000000,-69.282005
181.500000,-68.415980
180.500000,-68.415980
180.000000,-67.549950
179.500000,-68.415980
178.500000,-68.415980
179.000000,-69.282005
178.500000,-70.148030
177.500000,-70.148030
177.000000,-69.282005
176.500000,-70.148030
175.500000,-70.148030
175.000000,-69.282005
175.500000,-68.415980
174.500000,-68.415980
174.000000,-67.549950
174.500000,-66.683920
175.500000,-66.683920
175.000000,-65.817894
175.500000,-64.951866
174.500000,-64.951866
174.000000,-64.085840
173.500000,-64.951866
172.500000,-64.951866
172.000000,-64.085840
172.500000,-63.219814
171.500000,-63.219814
171.000000,-62.353790
171.500000,-61.487766
172.500000,-61.487766
172.000000,-60.621742
172.500000,-59.755720
173.500000,-59.755720
174.000000,-60.621742
174.500000,-59.755720
175.500000,-59.755720
175.000000,-58.889694
175.500000,-58.023670
174.500000,-58.023670
174.000000,-57.157646
174.500000,-56.291622
175.500000,-56.291622
175.000000,-55.425600
175.500000,-54.559574
174.500000,-54.559574
174.000000,-53.693550
173.500000,-54.559574
172.500000,-54.559574
172.000000,-53.693550
172.500000,-52.827526
171.500000,-52.827526
171.000000,-51.961502
170.500000,-52.827526
169.500000,-52.827526
170.000000,-53.693550
169.500000,-54.559574
168.500000,-54.559574
168.000000,-53.693550
167.500000,-54.559574
166.500000,-54.559574
166.000000,-53.693550
166.500000,-52.827526
165.500000,-52.827526
165.000000,-51.961502
165.500000,-51.095478
166.500000,-51.095478
166.000000,-50.229454
166.500000,-49.363430
165.500000,-49.363430
165.000000,-48.497406
164.500000,-49.363430
163.500000,-49.363430
163.000000,-48.497406
163.500000,-47.631382
162.500000,-47.631382
162.000000,-46.765358
161.500000,-47.631382
160.500000,-47.631382
161.000000,-48.497406
160.500000,-49.363430
159.500000,-49.363430
159.000000,-48.497406
158.500000,-49.363430
157.500000,-49.363430
158.000000,-50.229454
157.500000,-51.095478
158.500000,-51.095478
159.000000,-51.961502
158.500000,-52.827526
157.500000,-52.827526
158.000000,-53.693550
157.500000,-54.559574
156.500000,-54.559574
156.000000,-53.693550
155.500000,-54.559574
154.500000,-54.559574
154.000000,-53.693550
154.500000,-52.827526
153.500000,-52.827526
153.000000,-51.961502
152.500000,-52.827526
151.500000,-52.827526
152.000000,-53.693550
151.500000,-54.559574
150.500000,-54.559574
150.000000,-53.693550
149.500000,-54.559574
148.500000,-54.559574
149.000000,-55.425600
148.500000,-56.291622
149.500000,-56.291622
150.000000,-57.157646
149.500000,-58.023670
148.500000,-58.023670
149.000000,-58.889694
148.500000,-59.755720
149.500000,-59.755720
150.000000,-60.621742
150.500000,-59.755720
151.500000,-59.755720
152.000000,-60.621742
151.500000,-61.487766
152.500000,-61.487766
153.000000,-62.353790
152.500000,-63.219814
151.500000,-63.219814
152.000000,-64.085840
151.500000,-64.951866
150.500000,-64.951866
150.000000,-64.085840
149.500000,-64.951866
148.500000,-64.951866
149.000000,-65.817894
148.500000,-66.683920
149.500000,-66.683920
150.000000,-67.549950
149.500000,-68.415980
148.500000,-68.415980
149.000000,-69.282005
148.500000,-70.148030
147.500000,-70.148030
147.000000,-69.282005
146.500000,-70.148030
145.500000,-70.148030
145.000000,-69.282005
145.500000,-68.415980
144.500000,-68.415980
144.000000,-67.549950
143.500000,-68.415980
142.500000,-68.415980
143.000000,-69.282005
142.500000,-70.148030
141.500000,-70.148030
141.000000,-69.282005
140.500000,-70.148030
139.500000,-70.148030
139.000000,-69.282005
139.500000,-68.415980
138.500000,-68.415980
138.000000,-67.549950
138.500000,-66.683920
139.500000,-66.683920
139.000000,-65.817894
139.500000,-64.951866
138.500000,-64.951866
138.000000,-64.085840
137.500000,-64.951866
136.500000,-64.951866
136.000000,-64.085840
136.500000,-63.219814
135.500000,-63.219814
135.000000,-62.353790
134.500000,-63.219814
133.500000,-63.219814
134.000000,-64.085840
133.500000,-64.951866
132.500000,-64.951866
132.000000,-64.085840
131.500000,-64.951866
130.500000,-64.951866
131.000000,-65.817894
130.500000,-66.683920
131.500000,-66.683920
132.000000,-67.549950
131.500000,-68.415980
130.500000,-68.415980
131.000000,-69.282005
130.500000,-70.148030
129.500000,-70.148030
129.000000,-69.282005
128.500000,-70.148030
127.500000,-70.148030
127.000000,-69.282005
127.500000,-68.415980
126.500000,-68.415980
126.000000,-67.549950
125.500000,-68.415980
124.500000,-68.415980
125.000000,-69.282005
124.500000,-70.148030
123.500000,-70.148030
123.000000,-69.282005
122.500000,-70.148030
121.500000,-70.148030
122.000000,-71.014060
121.500000,-71.880090
122.500000,-71.880090
123.000000,-72.746120
122.500000,-73.612144
121.500000,-73.612144
122.000000,-74.478170
121.500000,-75.344200
122.500000,-75.344200
123.000000,-76.210230
123.500000,-75.344200
124.500000,-75.344200
125.000000,-76.210230
124.500000,-77.076256
125.500000,-77.076256
126.000000,-77.942280
125.500000,-78.808310
124.500000,-78.808310
125.000000,-79.674340
124.500000,-80.540370
123.500000,-80.540370
123.000000,-79.674340
122.500000,-80.540370
121.500000,-80.540370
122.000000,-81.406395
121.500000,-82.272420
122.500000,-82.272420
123.000000,-83.138450
122.500000,-84.004480
121.500000,-84.004480
122.000000,-84.870510
121.500000,-85.736534
122.500000,-85.736534
123.000000,-86.602560
123.500000,-85.736534
124.500000,-85.736534
125.000000,-86.602560
124.500000,-87.468590
125.500000,-87.468590
126.000000,-88.334620
126.500000,-87.468590
127.500000,-87.468590
127.000000,-86.602560
127.500000,-85.736534
128.500000,-85.736534
129.000000,-86.602560
129.500000,-85.736534
130.500000,-85.736534
131.000000,-86.602560
130.500000,-87.468590
131.500000,-87.468590
132.000000,-88.334620
131.500000,-89.200645
130.500000,-89.200645
131.000000,-90.066670
130.500000,-90.932700
131.500000,-90.932700
132.000000,-91.798730
132.500000,-90.932700
133.500000,-90.932700
134.000000,-91.798730
133.500000,-92.664760
134.500000,-92.664760
135.000000,-93.530785
134.500000,-94.396810
133.500000,-94.396810
134.000000,-95.262840
133.500000,-96.128870
132.500000,-96.128870
132.000000,-95.262840
131.500000,-96.128870
130.500000,-96.128870
131.000000,-96.994896
130.500000,-97.860920
131.500000,-97.860920
132.000000,-98.726950
131.500000,-99.592980
130.500000,-99.592980
131.000000,-100.459010
130.500000,-101.325035
129.500000,-101.325035
129.000000,-100.459010
128.500000,-101.325035
127.500000,-101.325035
127.000000,-100.459010
127.500000,-99.592980
126.500000,-99.592980
126.000000,-98.726950
125.500000,-99.592980
124.500000,-99.592980
125.000000,-100.459010
124.500000,-101.325035
123.500000,-101.325035
123.000000,-100.459010
122.500000,-101.325035
121.500000,-101.325035
122.000000,-102.191060
121.500000,-103.057090
122.500000,-103.057090
123.000000,-103.923120
122.500000,-104.789150
121.500000,-104.789150
122.000000,-105.655174
121.500000,-106.521200
122.500000,-106.521200
123.000000,-107.387230
123.500000,-106.521200
124.500000,-106.521200
125.000000,-107.387230
124.500000,-108.253260
125.500000,-108.253260
126.000000,-109.119286
125.500000,-109.985310
124.500000,-109.985310
125.000000,-110.851340
124.500000,-111.717370
123.500000,-111.717370
123.000000,-110.851340
122.500000,-111.717370
121.500000,-111.717370
122.000000,-112.583400
121.500000,-113.449425
122.500000,-113.449425
123.000000,-114.315450
122.500000,-115.181480
121.500000,-115.181480
122.000000,-116.047510
121.500000,-116.913536
122.500000,-116.913536
123.000000,-117.779564
123.500000,-116.913536
124.500000,-116.913536
125.000000,-117.779564
124.500000,-118.645590
125.500000,-118.645590
126.000000,-119.511620
126.500000,-118.645590
127.500000,-118.645590
127.000000,-117.779564
127.500000,-116.913536
128.500000,-116.913536
129.000000,-117.779564
129.500000,-116.913536
130.500000,-116.913536
131.000000,-117.779564
130.500000,-118.645590
131.500000,-118.645590
132.000000,-119.511620
131.500000,-120.377650
130.500000,-120.377650
131.000000,-121.243675
130.500000,-122.109700
131.500000,-122.109700
132.000000,-122.975730
132.500000,-122.109700
133.500000,-122.109700
134.000000,-122.975730
133.500000,-123.841760
134.500000,-123.841760
135.000000,-124.707790
135.500000,-123.841760
136.500000,-123.841760
136.000000,-122.975730
136.500000,-122.109700
137.500000,-122.109700
138.000000,-122.975730
138.500000,-122.109700
139.500000,-122.109700
139.000000,-121.243675
139.500000,-120.377650
138.500000,-120.377650
138.000000,-119.511620
138.500000,-118.645590
139.500000,-118.645590
139.000000,-117.779564
139.500000,-116.913536
140.500000,-116.913536
141.000000,-117.779564
141.500000,-116.913536
142.500000,-116.913536
143.000000,-117.779564
142.500000,-118.645590
143.500000,-118.645590
144.000000,-119.511620
144.500000,-118.645590
145.500000,-118.645590
145.000000,-117.779564
145.500000,-116.913536
146.500000,-116.913536
147.000000,-117.779564
147.500000,-116.913536
148.500000,-116.913536
149.000000,-117.779564
148.500000,-118.645590
149.500000,-118.645590
150.000000,-119.511620
149.500000,-120.377650
148.500000,-120.377650
149.000000,-121.243675
148.500000,-122.109700
149.500000,-122.109700
150.000000,-122.975730
150.500000,-122.109700
151.500000,-122.109700
152.000000,-122.975730
151.500000,-123.841760
152.500000,-123.841760
153.000000,-124.707790
152.500000,-125.573814
151.500000,-125.573814
152.000000,-126.439840
151.500000,-127.305870
150.500000,-127.305870
150.000000,-126.439840
149.500000,-127.305870
148.500000,-127.305870
149.000000,-128.171890
148.500000,-129.037920
149.500000,-129.037920
150.000000,-129.903950
149.500000,-130.769970
148.500000,-130.769970
149.000000,-131.636000
148.500000,-132.502030
149.500000,-132.502030
150.000000,-133.368060
150.500000,-132.502030
151.500000,-132.502030
152.000000,-133.368060
151.500000,-134.234090
152.500000,-134.234090
153.000000,-135.100110
153.500000,-134.234090
154.500000,-134.234090
154.000000,-133.368060
154.500000,-132.502030
155.500000,-132.502030
156.000000,-133.368060
156.500000,-132.502030
157.500000,-132.502030
158.000000,-133.368060
157.500000,-134.234090
158.500000,-134.234090
159.000000,-135.100110
158.500000,-135.966140
157.500000,-135.966140
158.000000,-136.832170
157.500000,-137.698200
158.500000,-137.698200
159.000000,-138.564220
159.500000,-137.698200
160.500000,-137.698200
161.000000,-138.564220
160.500000,-139.430250
161.500000,-139.430250
162.000000,-140.296280
161.500000,-141.162310
160.500000,-141.162310
161.000000,-142.028340
160.500000,-142.894360
159.500000,-142.894360
159.000000,-142.028340
158.500000,-142.894360
157.500000,-142.894360
158.000000,-143.760390
157.500000,-144.626420
158.500000,-144.626420
159.000000,-145.492450
158.500000,-146.358470
157.500000,-146.358470
158.000000,-147.224500
157.500000,-148.090530
156.500000,-148.090530
156.000000,-147.224500
155.500000,-148.090530
154.500000,-148.090530
154.000000,-147.224500
154.500000,-146.358470
153.500000,-146.358470
153.000000,-145.492450
152.500000,-146.358470
151.500000,-146.358470
152.000000,-147.224500
151.500000,-148.090530
150.500000,-148.090530
150.000000,-147.224500
149.500000,-148.090530
148.500000,-148.090530
149.000000,-148.956560
148.500000,-149.822590
149.500000,-149.822590
150.000000,-150.688610
149.500000,-151.554640
148.500000,-151.554640
149.000000,-152.420670
148.500000,-153.286700
149.500000,-153.286700
150.000000,-154.152730
150.500000,-153.286700
151.500000,-153.286700
152.000000,-154.152730
151.500000,-155.018750
152.500000,-155.018750
153.000000,-155.884780
152.500000,-156.750810
151.500000,-156.750810
152.000000,-157.616840
151.500000,-158.482860
150.500000,-158.482860
150.000000,-157.616840
149.500000,-158.482860
148.500000,-158.482860
149.000000,-159.348890
148.500000,-160.214920
149.500000,-160.214920
150.000000,-161.080950
149.500000,-161.946980
148.500000,-161.946980
149.000000,-162.813000
148.500000,-163.679030
147.500000,-163.679030
147.000000,-162.813000
146.500000,-163.679030
145.500000,-163.679030
145.000000,-162.813000
145.500000,-161.946980
144.500000,-161.946980
144.000000,-161.080950
143.500000,-161.946980
142.500000,-161.946980
143.000000,-162.813000
142.500000,-163.679030
141.500000,-163.679030
141.000000,-162.813000
140.500000,-163.679030
139.500000,-163.679030
139.000000,-162.813000
139.500000,-161.946980
138.500000,-161.946980
138.000000,-161.080950
138.500000,-160.214920
139.500000,-160.214920
139.000000,-159.348890
139.500000,-158.482860
138.500000,-158.482860
138.000000,-157.616840
137.500000,-158.482860
136.500000,-158.482860
136.000000,-157.616840
136.500000,-156.750810
135.500000,-156.750810
135.000000,-155.884780
134.500000,-156.750810
133.500000,-156.750810
134.000000,-157.616840
133.500000,-158.482860
132.500000,-158.482860
132.000000,-157.616840
131.500000,-158.482860
130.500000,-158.482860
131.000000,-159.348890
130.500000,-160.214920
131.500000,-160.214920
132.000000,-161.080950
131.500000,-161.946980
130.500000,-161.946980
131.000000,-162.813000
130.500000,-163.679030
129.500000,-163.679030
129.000000,-162.813000
128.500000,-163.679030
127.500000,-163.679030
127.000000,-162.813000
127.500000,-161.946980
126.500000,-161.946980
126.000000,-161.080950
125.500000,-161.946980
124.500000,-161.946980
125.000000,-162.813000
124.500000,-163.679030
123.500000,-163.679030
123.000000,-162.813000
122.500000,-163.679030
121.500000,-163.679030
122.000000,-164.545060
121.500000,-165.411090
122.500000,-165.411090
123.000000,-166.277110
122.500000,-167.143140
121.500000,-167.143140
122.000000,-168.009170
121.500000,-168.875200
122.500000,-168.875200
123.000000,-169.741230
123.500000,-168.875200
124.500000,-168.875200
125.000000,-169.741230
124.500000,-170.607250
125.500000,-170.607250
126.000000,-171.473280
125.500000,-172.339310
124.500000,-172.339310
125.000000,-173.205340
124.500000,-174.071370
123.500000,-174.071370
123.000000,-173.205340
122.500000,-174.071370
121.500000,-174.071370
122.000000,-174.937400
121.500000,-175.803420
122.500000,-175.803420
123.000000,-176.669450
122.500000,-177.535480
121.500000,-177.535480
122.000000,-178.401500
121.500000,-179.267530
122.500000,-179.267530
123.000000,-180.133560
123.500000,-179.267530
124.500000,-179.267530
125.000000,-180.133560
124.500000,-180.999590
125.500000,-180.999590
126.000000,-181.865620
126.500000,-180.999590
127.500000,-180.999590
127.000000,-180.133560
127.500000,-179.267530
128.500000,-179.267530
129.000000,-180.133560
129.500000,-179.267530
130.500000,-179.267530
131.000000,-180.133560
130.500000,-180.999590
131.500000,-180.999590
132.000000,-181.865620
131.500000,-182.731640
130.500000,-182.731640
131.000000,-183.597670
130.500000,-184.463700
131.500000,-184.463700
132.000000,-185.329730
132.500000,-184.463700
133.500000,-184.463700
134.000000,-185.329730
133.500000,-186.195760
134.500000,-186.195760
135.000000,-187.061780
134.500000,-187.927810
133.500000,-187.927810
134.000000,-188.793840
133.500000,-189.659870
132.500000,-189.659870
132.000000,-188.793840
131.500000,-189.659870
130.500000,-189.659870
131.000000,-190.525900
130.500000,-191.391920
131.500000,-191.391920
132.000000,-192.257950
131.500000,-193.123980
130.500000,-193.123980
131.000000,-193.990000
130.500000,-194.856030
129.500000,-194.856030
129.000000,-193.990000
128.500000,-194.856030
127.500000,-194.856030
127.000000,-193.990000
127.500000,-193.123980
126.500000,-193.123980
126.000000,-192.257950
125.500000,-193.123980
124.500000,-193.123980
125.000000,-193.990000
124.500000,-194.856030
123.500000,-194.856030
123.000000,-193.990000
122.500000,-194.856030
121.500000,-194.856030
122.000000,-195.722060
121.500000,-196.588090
122.500000,-196.588090
123.000000,-197.454120
122.500000,-198.320140
121.500000,-198.320140
122.000000,-199.186170
121.500000,-200.052200
122.500000,-200.052200
123.000000,-200.918230
123.500000,-200.052200
124.500000,-200.052200
125.000000,-200.918230
124.500000,-201.784260
125.500000,-201.784260
126.000000,-202.650280
125.500000,-203.516310
124.500000,-203.516310
125.000000,-204.382340
124.500000,-205.248370
123.500000,-205.248370
123.000000,-204.382340
122.500000,-205.248370
121.500000,-205.248370
122.000000,-206.114400
121.500000,-206.980420
122.500000,-206.980420
123.000000,-207.846450
122.500000,-208.712480
121.500000,-208.712480
122.000000,-209.578500
121.500000,-210.444530
121.000000,-209.578500
121.500000,-208.712480
120.500000,-208.712480
120.000000,-207.846450
120.500000,-206.980420
121.500000,-206.980420
121.000000,-206.114400
121.500000,-205.248370
120.500000,-205.248370
120.000000,-204.382340
119.500000,-205.248370
118.500000,-205.248370
118.000000,-204.382340
118.500000,-203.516310
117.500000,-203.516310
117.000000,-202.650280
117.500000,-201.784260
118.500000,-201.784260
118.000000,-200.918230
118.500000,-200.052200
119.500000,-200.052200
120.000000,-200.918230
120.500000,-200.052200
121.500000,-200.052200
121.000000,-199.186170
121.500000,-198.320140
120.500000,-198.320140
120.000000,-197.454120
120.500000,-196.588090
121.500000,-196.588090
121.000000,-195.722060
121.500000,-194.856030
120.500000,-194.856030
120.000000,-193.990000
119.500000,-194.856030
118.500000,-194.856030
118.000000,-193.990000
118.500000,-193.123980
117.500000,-193.123980
117.000000,-192.257950
116.500000,-193.123980
115.500000,-193.123980
116.000000,-193.990000
115.500000,-194.856030
114.500000,-194.856030
114.000000,-193.990000
113.500000,-194.856030
112.500000,-194.856030
112.000000,-193.990000
112.500000,-193.123980
111.500000,-193.123980
111.000000,-192.257950
111.500000,-191.391920
112.500000,-191.391920
112.000000,-190.525900
112.500000,-189.659870
111.500000,-189.659870
111.000000,-188.793840
110.500000,-189.659870
109.500000,-189.659870
109.000000,-188.793840
109.500000,-187.927810
108.500000,-187.927810
108.000000,-187.061780
108.500000,-186.195760
109.500000,-186.195760
109.000000,-185.329730
109.500000,-184.463700
110.500000,-184.463700
111.000000,-185.329730
111.500000,-184.463700
112.500000,-184.463700
112.000000,-183.597670
112.500000,-182.731640
111.500000,-182.731640
111.000000,-181.865620
111.500000,-180.999590
112.500000,-180.999590
112.000000,-180.133560
112.500000,-179.267530
113.500000,-179.267530
114.000000,-180.133560
114.500000,-179.267530
115.500000,-179.267530
116.000000,-180.133560
115.500000,-180.999590
116.500000,-180.999590
117.000000,-181.865620
117.500000,-180.999590
118.500000,-180.999590
118.000000,-180.133560
118.500000,-179.267530
119.500000,-179.267530
120.000000,-180.133560
120.500000,-179.267530
121.500000,-179.267530
121.000000,-178.401500
121.500000,-177.535480
120.500000,-177.535480
120.000000,-176.669450
120.500000,-175.803420
121.500000,-175.803420
121.000000,-174.937400
121.500000,-174.071370
120.500000,-174.071370
120.000000,-173.205340
119.500000,-174.071370
118.500000,-174.071370
118.000000,-173.205340
118.500000,-172.339310
117.500000,-172.339310
117.000000,-171.473280
117.500000,-170.607250
118.500000,-170.607250
118.000000,-169.741230
118.500000,-168.875200
119.500000,-168.875200
120.000000,-169.741230
120.500000,-168.875200
121.500000,-168.875200
121.000000,-168.009170
121.500000,-167.143140
120.500000,-167.143140
120.000000,-166.277110
120.500000,-165.411090
121.500000,-165.411090
121.000000,-164.545060
121.500000,-163.679030
120.500000,-163.679030
120.000000,-162.813000
119.500000,-163.679030
118.500000,-163.679030
118.000000,-162.813000
118.500000,-161.946980
117.500000,-161.946980
117.000000,-161.080950
116.500000,-161.946980
115.500000,-161.946980
116.000000,-162.813000
115.500000,-163.679030
114.500000,-163.679030
114.000000,-162.813000
113.500000,-163.679030
112.500000,-163.679030
112.000000,-162.813000
112.500000,-161.946980
111.500000,-161.946980
111.000000,-161.080950
111.500000,-160.214920
112.500000,-160.214920
112.000000,-159.348890
112.500000,-158.482860
111.500000,-158.482860
111.000000,-157.616840
110.500000,-158.482860
109.500000,-158.482860
109.000000,-157.616840
109.500000,-156.750810
108.500000,-156.750810
108.000000,-155.884780
107.500000,-156.750810
106.500000,-156.750810
107.000000,-157.616840
106.500000,-158.482860
105.500000,-158.482860
105.000000,-157.616840
104.500000,-158.482860
103.500000,-158.482860
104.000000,-159.348890
103.500000,-160.214920
104.500000,-160.214920
105.000000,-161.080950
104.500000,-161.946980
103.500000,-161.946980
104.000000,-162.813000
103.500000,-163.679030
102.500000,-163.679030
102.000000,-162.813000
101.500000,-163.679030
100.500000,-163.679030
100.000000,-162.813000
100.500000,-161.946980
 99.500000,-161.946980
 99.000000,-161.080950
 98.500000,-161.946980
 97.500000,-161.946980
 98.000000,-162.813000
 97.500000,-163.679030
 96.500000,-163.679030
 96.000000,-162.813000
 95.500000,-163.679030
 94.500000,-163.679030
 94.000000,-162.813000
 94.500000,-161.946980
 93.500000,-161.946980
 93.000000,-161.080950
 93.500000,-160.214920
 94.500000,-160.214920
 94.000000,-159.348890
 94.500000,-158.482860
 93.500000,-158.482860
 93.000000,-157.616840
 92.500000,-158.482860
 91.500000,-158.482860
 91.000000,-157.616840
 91.500000,-156.750810
 90.500000,-156.750810
 90.000000,-155.884780
 90.500000,-155.018750
 91.500000,-155.018750
 91.000000,-154.152730
 91.500000,-153.286700
 92.500000,-153.286700
 93.000000,-154.152730
 93.500000,-153.286700
 94.500000,-153.286700
 94.000000,-152.420670
 94.500000,-151.554640
 93.500000,-151.554640
 93.000000,-150.688610
 93.500000,-149.822590
 94.500000,-149.822590
 94.000000,-148.956560
 94.500000,-148.090530
 93.500000,-148.090530
 93.000000,-147.224500
 92.500000,-148.090530
 91.500000,-148.090530
 91.000000,-147.224500
 91.500000,-146.358470
 90.500000,-146.358470
 90.000000,-145.492450
 89.500000,-146.358470
 88.500000,-146.358470
 89.000000,-147.224500
 88.500000,-148.090530
 87.500000,-148.090530
 87.000000,-147.224500
 86.500000,-148.090530
 85.500000,-148.090530
 85.000000,-147.224500
 85.500000,-146.358470
 84.500000,-146.358470
 84.000000,-145.492450
 84.500000,-144.626420
 85.500000,-144.626420
 85.000000,-143.760390
 85.500000,-142.894360
 84.500000,-142.894360
 84.000000,-142.028340
 83.500000,-142.894360
 82.500000,-142.894360
 82.000000,-142.028340
 82.500000,-141.162310
 81.500000,-141.162310
 81.000000,-140.296280
 81.500000,-139.430250
 82.500000,-139.430250
 82.000000,-138.564220
 82.500000,-137.698200
 83.500000,-137.698200
 84.000000,-138.564220
 84.500000,-137.698200
 85.500000,-137.698200
 85.000000,-136.832170
 85.500000,-135.966140
 84.500000,-135.966140
 84.000000,-135.100110
 84.500000,-134.234090
 85.500000,-134.234090
 85.000000,-133.368060
 85.500000,-132.502030
 86.500000,-132.502030
 87.000000,-133.368060
 87.500000,-132.502030
 88.500000,-132.502030
 89.000000,-133.368060
 88.500000,-134.234090
 89.500000,-134.234090
 90.000000,-135.100110
 90.500000,-134.234090
 91.500000,-134.234090
 91.000000,-133.368060
 91.500000,-132.502030
 92.500000,-132.502030
 93.000000,-133.368060
 93.500000,-132.502030
 94.500000,-132.502030
 94.000000,-131.636000
 94.500000,-130.769970
 93.500000,-130.769970
 93.000000,-129.903950
 93.500000,-129.037920
 94.500000,-129.037920
 94.000000,-128.171890
 94.500000,-127.305860
 93.500000,-127.305860
 93.000000,-126.439835
 92.500000,-127.305860
 91.500000,-127.305860
 91.000000,-126.439835
 91.500000,-125.573810
 90.500000,-125.573810
 90.000000,-124.707780
 90.500000,-123.841750
 91.500000,-123.841750
 91.000000,-122.975720
 91.500000,-122.109695
 92.500000,-122.109695
 93.000000,-122.975720
 93.500000,-122.109695
 94.500000,-122.109695
 94.000000,-121.243670
 94.500000,-120.377640
 93.500000,-120.377640
 93.000000,-119.511610
 93.500000,-118.645584
 94.500000,-118.645584
 94.000000,-117.779560
 94.500000,-116.913530
 95.500000,-116.913530
 96.000000,-117.779560
 96.500000,-116.913530
 97.500000,-116.913530
 98.000000,-117.779560
 97.500000,-118.645584
 98.500000,-118.645584
 99.000000,-119.511610
 99.500000,-118.645584
100.500000,-118.645584
100.000000,-117.779560
100.500000,-116.913530
101.500000,-116.913530
102.000000,-117.779560
102.500000,-116.913530
103.500000,-116.913530
104.000000,-117.779560
103.500000,-118.645584
104.500000,-118.645584
105.000000,-119.511610
104.500000,-120.377640
103.500000,-120.377640
104.000000,-121.243670
103.500000,-122.109695
104.500000,-122.109695
105.000000,-122.975720
105.500000,-122.109695
106.500000,-122.109695
107.000000,-122.975720
106.500000,-123.841750
107.500000,-123.841750
108.000000,-124.707780
108.500000,-123.841750
109.500000,-123.841750
109.000000,-122.975720
109.500000,-122.109695
110.500000,-122.109695
111.000000,-122.975720
111.500000,-122.109695
112.500000,-122.109695
112.000000,-121.243670
112.500000,-120.377640
111.500000,-120.377640
111.000000,-119.511610
111.500000,-118.645584
112.500000,-118.645584
112.000000,-117.779560
112.500000,-116.913530
113.500000,-116.913530
114.000000,-117.779560
114.500000,-116.913530
115.500000,-116.913530
116.000000,-117.779560
115.500000,-118.645584
116.500000,-118.645584
117.000000,-119.511610
117.500000,-118.645584
118.500000,-118.645584
118.000000,-117.779560
118.500000,-116.913530
119.500000,-116.913530
120.000000,-117.779560
120.500000,-116.913530
121.500000,-116.913530
121.000000,-116.047500
121.500000,-115.181470
120.500000,-115.181470
120.000000,-114.315445
120.500000,-113.449420
121.500000,-113.449420
121.000000,-112.583390
121.500000,-111.717360
120.500000,-111.717360
120.000000,-110.851330
119.500000,-111.717360
118.500000,-111.717360
118.000000,-110.851330
118.500000,-109.985306
117.500000,-109.985306
117.000000,-109.119280
117.500000,-108.253250
118.500000,-108.253250
118.000000,-107.387220
118.500000,-106.521194
119.500000,-106.521194
120.000000,-107.387220
120.500000,-106.521194
121.500000,-106.521194
121.000000,-105.655170
121.500000,-104.789140
120.500000,-104.789140
120.000000,-103.923110
120.500000,-103.057080
121.500000,-103.057080
121.000000,-102.191055
121.500000,-101.325030
120.500000,-101.325030
120.000000,-100.459000
119.500000,-101.325030
118.500000,-101.325030
118.000000,-100.459000
118.500000,-99.592970
117.500000,-99.592970
117.000000,-98.726944
116.500000,-99.592970
115.500000,-99.592970
116.000000,-100.459000
115.500000,-101.325030
114.500000,-101.325030
114.000000,-100.459000
113.500000,-101.325030
112.500000,-101.325030
112.000000,-100.459000
112.500000,-99.592970
111.500000,-99.592970
111.000000,-98.726944
111.500000,-97.860916
112.500000,-97.860916
112.000000,-96.994890
112.500000,-96.128860
111.500000,-96.128860
111.000000,-95.262830
110.500000,-96.128860
109.500000,-96.128860
109.000000,-95.262830
109.500000,-94.396805
108.500000,-94.396805
108.000000,-93.530780
108.500000,-92.664750
109.500000,-92.664750
109.000000,-91.798720
109.500000,-90.932690
110.500000,-90.932690
111.000000,-91.798720
111.500000,-90.932690
112.500000,-90.932690
112.000000,-90.066666
112.500000,-89.200640
111.500000,-89.200640
111.000000,-88.334610
111.500000,-87.468580
112.500000,-87.468580
112.000000,-86.602554
112.500000,-85.736530
113.500000,-85.736530
114.000000,-86.602554
114.500000,-85.736530
115.500000,-85.736530
116.000000,-86.602554
115.500000,-87.468580
116.500000,-87.468580
117.000000,-88.334610
117.500000,-87.468580
118.500000,-87.468580
118.000000,-86.602554
118.500000,-85.736530
119.500000,-85.736530
120.000000,-86.602554
120.500000,-85.736530
121.500000,-85.736530
121.000000,-84.870500
121.500000,-84.004470
120.500000,-84.004470
120.000000,-83.138440
120.500000,-82.272415
121.500000,-82.272415
121.000000,-81.406390
121.500000,-80.540360
120.500000,-80.540360
120.000000,-79.674330
119.500000,-80.540360
118.500000,-80.540360
118.000000,-79.674330
118.500000,-78.808304
117.500000,-78.808304
117.000000,-77.942276
117.500000,-77.076250
118.500000,-77.076250
118.000000,-76.210220
118.500000,-75.344190
119.500000,-75.344190
120.000000,-76.210220
120.500000,-75.344190
121.500000,-75.344190
121.000000,-74.478165
121.500000,-73.612140
120.500000,-73.612140
120.000000,-72.746110
120.500000,-71.880080
121.500000,-71.880080
121.000000,-71.014050
121.500000,-70.148026
120.500000,-70.148026
120.000000,-69.282000
119.500000,-70.148026
118.500000,-70.148026
118.000000,-69.282000
118.500000,-68.415970
117.500000,-68.415970
117.000000,-67.549940
116.500000,-68.415970
115.500000,-68.415970
116.000000,-69.282000
115.500000,-70.148026
114.500000,-70.148026
114.000000,-69.282000
113.500000,-70.148026
112.500000,-70.148026
112.000000,-69.282000
112.500000,-68.415970
111.500000,-68.415970
111.000000,-67.549940
111.500000,-66.683914
112.500000,-66.683914
112.000000,-65.817890
112.500000,-64.951860
111.500000,-64.951860
111.000000,-64.085830
110.500000,-64.951860
109.500000,-64.951860
109.000000,-64.085830
109.500000,-63.219807
108.500000,-63.219807
108.000000,-62.353783
107.500000,-63.219807
106.500000,-63.219807
107.000000,-64.085830
106.500000,-64.951860
105.500000,-64.951860
105.000000,-64.085830
104.500000,-64.951860
103.500000,-64.951860
104.000000,-65.817890
103.500000,-66.683914
104.500000,-66.683914
105.000000,-67.549940
104.500000,-68.415970
103.500000,-68.415970
104.000000,-69.282000
103.500000,-70.148026
102.500000,-70.148026
102.000000,-69.282000
101.500000,-70.148026
100.500000,-70.148026
100.000000,-69.282000
100.500000,-68.415970
 99.500000,-68.415970
 99.000000,-67.549940
 98.500000,-68.415970
 97.500000,-68.415970
 98.000000,-69.282000
 97.500000,-70.148026
 96.500000,-70.148026
 96.000000,-69.282000
 95.500000,-70.148026
 94.500000,-70.148026
 94.000000,-69.282000
 94.500000,-68.415970
 93.500000,-68.415970
 93.000000,-67.549940
 93.500000,-66.683914
 94.500000,-66.683914
 94.000000,-65.817890
 94.500000,-64.951860
 93.500000,-64.951860
 93.000000,-64.085830
 92.500000,-64.951860
 91.500000,-64.951860
 91.000000,-64.085830
 91.500000,-63.219807
 90.500000,-63.219807
 90.000000,-62.353783
 90.500000,-61.487760
 91.500000,-61.487760
 91.000000,-60.621735
 91.500000,-59.755710
 92.500000,-59.755710
 93.000000,-60.621735
 93.500000,-59.755710
 94.500000,-59.755710
 94.000000,-58.889687
 94.500000,-58.023663
 93.500000,-58.023663
 93.000000,-57.157640
 93.500000,-56.291615
 94.500000,-56.291615
 94.000000,-55.425590
 94.500000,-54.559566
 93.500000,-54.559566
 93.000000,-53.693542
 92.500000,-54.559566
 91.500000,-54.559566
 91.000000,-53.693542
 91.500000,-52.827520
 90.500000,-52.827520
 90.000000,-51.961494
 89.500000,-52.827520
 88.500000,-52.827520
 89.000000,-53.693542
 88.500000,-54.559566
 87.500000,-54.559566
 87.000000,-53.693542
 86.500000,-54.559566
 85.500000,-54.559566
 85.000000,-53.693542
 85.500000,-52.827520
 84.500000,-52.827520
 84.000000,-51.961494
 84.500000,-51.095470
 85.500000,-51.095470
 85.000000,-50.229446
 85.500000,-49.363422
 84.500000,-49.363422
 84.000000,-48.497400
 83.500000,-49.363422
 82.500000,-49.363422
 82.000000,-48.497400
 82.500000,-47.631374
 81.500000,-47.631374
 81.000000,-46.765350
 80.500000,-47.631374
 79.500000,-47.631374
 80.000000,-48.497400
 79.500000,-49.363422
 78.500000,-49.363422
 78.000000,-48.497400
 77.500000,-49.363422
 76.500000,-49.363422
 77.000000,-50.229446
 76.500000,-51.095470
 77.500000,-51.095470
 78.000000,-51.961494
 77.500000,-52.827520
 76.500000,-52.827520
 77.000000,-53.693542
 76.500000,-54.559566
 75.500000,-54.559566
 75.000000,-53.693542
 74.500000,-54.559566
 73.500000,-54.559566
 73.000000,-53.693542
 73.500000,-52.827520
 72.500000,-52.827520
 72.000000,-51.961494
 71.500000,-52.827520
 70.500000,-52.827520
 71.000000,-53.693542
 70.500000,-54.559566
 69.500000,-54.559566
 69.000000,-53.693542
 68.500000,-54.559566
 67.500000,-54.559566
 68.000000,-55.425590
 67.500000,-56.291615
 68.500000,-56.291615
 69.000000,-57.157640
 68.500000,-58.023663
 67.500000,-58.023663
 68.000000,-58.889687
 67.500000,-59.755710
 68.500000,-59.755710
 69.000000,-60.621735
 69.500000,-59.755710
 70.500000,-59.755710
 71.000000,-60.621735
 70.500000,-61.487760
 71.500000,-61.487760
 72.000000,-62.353783
 71.500000,-63.219807
 70.500000,-63.219807
 71.000000,-64.085830
 70.500000,-64.951860
 69.500000,-64.951860
 69.000000,-64.085830
 68.500000,-64.951860
 67.500000,-64.951860
 68.000000,-65.817890
 67.500000,-66.683914
 68.500000,-66.683914
 69.000000,-67.549940
 68.500000,-68.415970
 67.500000,-68.415970
 68.000000,-69.282000
 67.500000,-70.148026
 66.500000,-70.148026
 66.000000,-69.282000
 65.500000,-70.148026
 64.500000,-70.148026
 64.000000,-69.282000
 64.500000,-68.415970
 63.500000,-68.415970
 63.000000,-67.549940
 62.500000,-68.415970
 61.500000,-68.415970
 62.000000,-69.282000
 61.500000,-70.148026
 60.500000,-70.148026
 60.000000,-69.282000
 59.500000,-70.148026
 58.500000,-70.148026
 58.000000,-69.282000
 58.500000,-68.415970
 57.500000,-68.415970
 57.000000,-67.549940
 57.500000,-66.683914
 58.500000,-66.683914
 58.000000,-65.817890
 58.500000,-64.951860
 57.500000,-64.951860
 57.000000,-64.085830
 56.500000,-64.951860
 55.500000,-64.951860
 55.000000,-64.085830
 55.500000,-63.219807
 54.500000,-63.219807
 54.000000,-62.353783
 53.500000,-63.219807
 52.500000,-63.219807
 53.000000,-64.085830
 52.500000,-64.951860
 51.500000,-64.951860
 51.000000,-64.085830
 50.500000,-64.951860
 49.500000,-64.951860
 50.000000,-65.817890
 49.500000,-66.683914
 50.500000,-66.683914
 51.000000,-67.549940
 50.500000,-68.415970
 49.500000,-68.415970
 50.000000,-69.282000
 49.500000,-70.148026
 48.500000,-70.148026
 48.000000,-69.282000
 47.500000,-70.148026
 46.500000,-70.148026
 46.000000,-69.282000
 46.500000,-68.415970
 45.500000,-68.415970
 45.000000,-67.549940
 44.500000,-68.415970
 43.500000,-68.415970
 44.000000,-69.282000
 43.500000,-70.148026
 42.500000,-70.148026
 42.000000,-69.282000
 41.500000,-70.148026
 40.500000,-70.148026
 40.000000,-69.282000
 40.500000,-68.415970
 39.500000,-68.415970
 39.000000,-67.549940
 39.500000,-66.683914
 40.500000,-66.683914
 40.000000,-65.817890
 40.500000,-64.951860
 39.500000,-64.951860
 39.000000,-64.085830
 38.500000,-64.951860
 37.500000,-64.951860
 37.000000,-64.085830
 37.500000,-63.219807
 36.500000,-63.219807
 36.000000,-62.353783
 36.500000,-61.487760
 37.500000,-61.487760
 37.000000,-60.621735
 37.500000,-59.755710
 38.500000,-59.755710
 39.000000,-60.621735
 39.500000,-59.755710
 40.500000,-59.755710
 40.000000,-58.889687
 40.500000,-58.023663
 39.500000,-58.023663
 39.000000,-57.157640
 39.500000,-56.291615
 40.500000,-56.291615
 40.000000,-55.425590
 40.500000,-54.559566
 39.500000,-54.559566
 39.000000,-53.693542
 38.500000,-54.559566
 37.500000,-54.559566
 37.000000,-53.693542
 37.500000,-52.827520
 36.500000,-52.827520
 36.000000,-51.961494
 35.500000,-52.827520
 34.500000,-52.827520
 35.000000,-53.693542
 34.500000,-54.559566
 33.500000,-54.559566
 33.000000,-53.693542
 32.500000,-54.559566
 31.500000,-54.559566
 31.000000,-53.693542
 31.500000,-52.827520
 30.500000,-52.827520
 30.000000,-51.961494
 30.500000,-51.095470
 31.500000,-51.095470
 31.000000,-50.229446
 31.500000,-49.363422
 30.500000,-49.363422
 30.000000,-48.497400
 29.500000,-49.363422
 28.500000,-49.363422
 28.000000,-48.497400
 28.500000,-47.631374
 27.500000,-47.631374
 27.000000,-46.765350
 27.500000,-45.899326
 28.500000,-45.899326
 28.000000,-45.033302
 28.500000,-44.167280
 29.500000,-44.167280
 30.000000,-45.033302
 30.500000,-44.167280
 31.500000,-44.167280
 31.000000,-43.301254
 31.500000,-42.435230
 30.500000,-42.435230
 30.000000,-41.569206
 30.500000,-40.703182
 31.500000,-40.703182
 31.000000,-39.837160
 31.500000,-38.971134
 32.500000,-38.971134
 33.000000,-39.837160
 33.500000,-38.971134
 34.500000,-38.971134
 35.000000,-39.837160
 34.500000,-40.703182
 35.500000,-40.703182
 36.000000,-41.569206
 36.500000,-40.703182
 37.500000,-40.703182
 37.000000,-39.837160
 37.500000,-38.971134
 38.500000,-38.971134
 39.000000,-39.837160
 39.500000,-38.971134
 40.500000,-38.971134
 40.000000,-38.105110
 40.500000,-37.239086
 39.500000,-37.239086
 39.000000,-36.373062
 39.500000,-35.507040
 40.500000,-35.507040
 40.000000,-34.641014
 40.500000,-33.774990
 39.500000,-33.774990
 39.000000,-32.908966
 38.500000,-33.774990
 37.500000,-33.774990
 37.000000,-32.908966
 37.500000,-32.042942
 36.500000,-32.042942
 36.000000,-31.176916
 36.500000,-30.310890
 37.500000,-30.310890
 37.000000,-29.444864
 37.500000,-28.578838
 38.500000,-28.578838
 39.000000,-29.444864
 39.500000,-28.578838
 40.500000,-28.578838
 40.000000,-27.712812
 40.500000,-26.846786
 39.500000,-26.846786
 39.000000,-25.980760
 39.500000,-25.114735
 40.500000,-25.114735
 40.000000,-24.248709
 40.500000,-23.382683
 39.500000,-23.382683
 39.000000,-22.516657
 38.500000,-23.382683
 37.500000,-23.382683
 37.000000,-22.516657
 37.500000,-21.650630
 36.500000,-21.650630
 36.000000,-20.784605
 35.500000,-21.650630
 34.500000,-21.650630
 35.000000,-22.516657
 34.500000,-23.382683
 33.500000,-23.382683
 33.000000,-22.516657
 32.500000,-23.382683
 31.500000,-23.382683
 31.000000,-22.516657
 31.500000,-21.650630
 30.500000,-21.650630
 30.000000,-20.784605
 30.500000,-19.918580
 31.500000,-19.918580
 31.000000,-19.052553
 31.500000,-18.186527
 30.500000,-18.186527
 30.000000,-17.320501
 29.500000,-18.186527
 28.500000,-18.186527
 28.000000,-17.320501
 28.500000,-16.454475
 27.500000,-16.454475
 27.000000,-15.588450
 26.500000,-16.454475
 25.500000,-16.454475
 26.000000,-17.320501
 25.500000,-18.186527
 24.500000,-18.186527
 24.000000,-17.320501
 23.500000,-18.186527
 22.500000,-18.186527
 23.000000,-19.052553
 22.500000,-19.918580
 23.500000,-19.918580
 24.000000,-20.784605
 23.500000,-21.650630
 22.500000,-21.650630
 23.000000,-22.516657
 22.500000,-23.382683
 21.500000,-23.382683
 21.000000,-22.516657
 20.500000,-23.382683
 19.500000,-23.382683
 19.000000,-22.516657
 19.500000,-21.650630
 18.500000,-21.650630
 18.000000,-20.784605
 17.500000,-21.650630
 16.500000,-21.650630
 17.000000,-22.516657
 16.500000,-23.382683
 15.500000,-23.382683
 15.000000,-22.516657
 14.500000,-23.382683
 13.500000,-23.382683
 13.000000,-22.516657
 13.500000,-21.650630
 12.500000,-21.650630
 12.000000,-20.784605
 12.500000,-19.918580
 13.500000,-19.918580
 13.000000,-19.052553
 13.500000,-18.186527
 12.500000,-18.186527
 12.000000,-17.320501
 11.500000,-18.186527
 10.500000,-18.186527
 10.000000,-17.320501
 10.500000,-16.454475
  9.500000,-16.454475
  9.000000,-15.588450
  9.500000,-14.722424
 10.500000,-14.722424
 10.000000,-13.856398
 10.500000,-12.990372
 11.500000,-12.990372
 12.000000,-13.856397
 12.500000,-12.990372
 13.500000,-12.990372
 13.000000,-12.124346
 13.500000,-11.258320
 12.500000,-11.258320
 12.000000,-10.392294
 12.500000, -9.526268
 13.500000, -9.526268
 13.000000, -8.660242
 13.500000, -7.794217
 12.500000, -7.794217
 12.000000, -6.928191
 11.500000, -7.794217
 10.500000, -7.794217
 10.000000, -6.928191
 10.500000, -6.062166
  9.500000, -6.062166
  9.000000, -5.196140
  8.500000, -6.062166
  7.500000, -6.062166
  8.000000, -6.928191
  7.500000, -7.794217
  6.500000, -7.794217
  6.000000, -6.928191
  5.500000, -7.794217
  4.500000, -7.794217
  4.000000, -6.928191
  4.500000, -6.062166
  3.500000, -6.062166
  3.000000, -5.196140
  3.500000, -4.330115
  4.500000, -4.330115
  4.000000, -3.464089
  4.500000, -2.598064
  3.500000, -2.598064
  3.000000, -1.732038
  2.500000, -2.598064
  1.500000, -2.598064
  1.000000, -1.732038
  1.500000, -0.866013
  0.500000, -0.866013
  0.000000,  0.000012
 "
/>
</svg>
