<svg xmlns="http://www.w3.org/2000/svg"
 viewBox="-16.692822 -14.549233 17.385641 15.242054"
>
<polyline
 fill="none" stroke="green" stroke-width="0.25%"
 points="
  0.000000,  0.000000
 -1.000000, -0.000000
 -0.500000, -0.866026
 -1.500000, -0.866026
 -1.000000, -0.000000
 -2.000000, -0.000000
 -1.500000, -0.866026
 -1.000000, -1.732051
 -2.000000, -1.732051
 -1.500000, -2.598077
 -2.500000, -2.598077
 -2.000000, -1.732051
 -3.000000, -1.732052
 -2.500000, -0.866026
 -2.000000, -0.000001
 -3.000000, -0.000001
 -2.500000, -0.866026
 -3.500000, -0.866026
 -3.000000, -0.000001
 -4.000000, -0.000001
 -3.500000, -0.866026
 -3.000000, -1.732052
 -2.500000, -2.598077
 -2.000000, -3.464102
 -3.000000, -3.464102
 -2.500000, -4.330128
 -3.500000, -4.330128
 -3.000000, -3.464102
 -4.000000, -3.464102
 -3.500000, -4.330128
 -3.000000, -5.196153
 -4.000000, -5.196153
 -3.500000, -6.062179
 -4.500000, -6.062179
 -4.000000, -5.196153
 -5.000000, -5.196153
 -4.500000, -4.330128
 -4.000000, -3.464102
 -5.000000, -3.464102
 -4.500000, -4.330128
 -5.500000, -4.330128
 -5.000000, -3.464102
 -6.000000, -3.464102
 -5.500000, -2.598077
 -5.000000, -1.732051
 -4.500000, -0.866026
 -4.000000, -0.000000
 -5.000000, -0.000001
 -4.500000, -0.866026
 -5.500000, -0.866026
 -5.000000, -0.000001
 -6.000000, -0.000001
 -5.500000, -0.866026
 -5.000000, -1.732052
 -6.000000, -1.732052
 -5.500000, -2.598077
 -6.500000, -2.598077
 -6.000000, -1.732052
 -7.000000, -1.732052
 -6.500000, -0.866026
 -6.000000, -0.000001
 -7.000000, -0.000001
 -6.500000, -0.866027
 -7.500000, -0.866027
 -7.000000, -0.000001
 -8.000000, -0.000001
 -7.500000, -0.866027
 -7.000000, -1.732052
 -6.500000, -2.598078
 -6.000000, -3.464103
 -5.500000, -4.330129
 -5.000000, -5.196154
 -4.500000, -6.062180
 -4.000000, -6.928205
 -5.000000, -6.928205
 -4.500000, -7.794230
 -5.500000, -7.794230
 -5.000000, -6.928205
 -6.000000, -6.928205
 -5.500000, -7.794230
 -5.000000, -8.660255
 -6.000000, -8.660255
 -5.500000, -9.526281
 -6.500000, -9.526281
 -6.000000, -8.660255
 -7.000000, -8.660255
 -6.500000, -7.794230
 -6.000000, -6.928204
 -7.000000, -6.928204
 -6.500000, -7.794230
 -7.500000, -7.794230
 -7.000000, -6.928204
 -8.000000, -6.928204
 -7.500000, -7.794230
 -7.000000, -8.660255
 -6.500000, -9.526281
 -6.000000,-10.392307
 -7.000000,-10.392307
 -6.500000,-11.258333
 -7.500000,-11.258333
 -7.000000,-10.392307
 -8.000000,-10.392307
 -7.500000,-11.258333
 -7.000000,-12.124359
 -8.000000,-12.124359
 -7.500000,-12.990385
 -8.500000,-12.990385
 -8.000000,-12.124359
 -9.000000,-12.124359
 -8.500000,-11.258333
 -8.000000,-10.392307
 -9.000000,-10.392307
 -8.500000,-11.258333
 -9.500000,-11.258333
 -9.000000,-10.392307
-10.000000,-10.392307
 -9.500000, -9.526281
 -9.000000, -8.660255
 -8.500000, -7.794230
 -8.000000, -6.928204
 -9.000000, -6.928204
 -8.500000, -7.794230
 -9.500000, -7.794230
 -9.000000, -6.928204
-10.000000, -6.928204
 -9.500000, -7.794230
 -9.000000, -8.660255
-10.000000, -8.660255
 -9.500000, -9.526281
-10.500000, -9.526281
-10.000000, -8.660255
-11.000000, -8.660255
-10.500000, -7.794230
-10.000000, -6.928204
-11.000000, -6.928204
-10.500000, -7.794230
-11.500000, -7.794230
-11.000000, -6.928204
-12.000000, -6.928204
-11.500000, -6.062179
-11.000000, -5.196154
-10.500000, -4.330128
-10.000000, -3.464103
 -9.500000, -2.598077
 -9.000000, -1.732052
 -8.500000, -0.866026
 -8.000000, -0.000001
 -9.000000, -0.000001
 -8.500000, -0.866026
 -9.500000, -0.866026
 -9.000000, -0.000001
-10.000000, -0.000001
 -9.500000, -0.866027
 -9.000000, -1.732052
-10.000000, -1.732052
 -9.500000, -2.598078
-10.500000, -2.598078
-10.000000, -1.732052
-11.000000, -1.732052
-10.500000, -0.866027
-10.000000, -0.000002
-11.000000, -0.000002
-10.500000, -0.866027
-11.500000, -0.866027
-11.000000, -0.000002
-12.000000, -0.000002
-11.500000, -0.866027
-11.000000, -1.732053
-10.500000, -2.598078
-10.000000, -3.464104
-11.000000, -3.464104
-10.500000, -4.330129
-11.500000, -4.330129
-11.000000, -3.464103
-12.000000, -3.464103
-11.500000, -4.330129
-11.000000, -5.196154
-12.000000, -5.196154
-11.500000, -6.062180
-12.500000, -6.062180
-12.000000, -5.196154
-13.000000, -5.196154
-12.500000, -4.330129
-12.000000, -3.464103
-13.000000, -3.464103
-12.500000, -4.330129
-13.500000, -4.330129
-13.000000, -3.464103
-14.000000, -3.464103
-13.500000, -2.598078
-13.000000, -1.732052
-12.500000, -0.866027
-12.000000, -0.000001
-13.000000, -0.000002
-12.500000, -0.866027
-13.500000, -0.866027
-13.000000, -0.000002
-14.000000, -0.000002
-13.500000, -0.866027
-13.000000, -1.732053
-14.000000, -1.732053
-13.500000, -2.598078
-14.500000, -2.598078
-14.000000, -1.732053
-15.000000, -1.732053
-14.500000, -0.866028
-14.000000, -0.000002
-15.000000, -0.000002
-14.500000, -0.866028
-15.500000, -0.866028
-15.000000, -0.000002
-16.000000, -0.000002
-15.500000, -0.866028
-15.000000, -1.732053
-14.500000, -2.598078
-14.000000, -3.464104
-13.500000, -4.330130
-13.000000, -5.196155
-12.500000, -6.062180
-12.000000, -6.928206
-11.500000, -7.794231
-11.000000, -8.660257
-10.500000, -9.526283
-10.000000,-10.392309
 -9.500000,-11.258335
 -9.000000,-12.124361
 -8.500000,-12.990387
 -8.000000,-13.856413
 -7.500000,-12.990388
 -7.000000,-12.124363
 -6.500000,-11.258338
 -6.000000,-10.392313
 -5.500000, -9.526288
 -5.000000, -8.660263
 -4.500000, -7.794238
 -4.000000, -6.928212
 -3.500000, -6.062187
 -3.000000, -5.196161
 -2.500000, -4.330136
 -2.000000, -3.464110
 -1.500000, -2.598085
 -1.000000, -1.732060
 -0.500000, -0.866034
  0.000000, -0.000009
 "
/>
</svg>
